<svg width="43" height="43" viewBox="0 0 43 43" fill="none" xmlns="http://www.w3.org/2000/svg">
<path d="M39.2343 2.76743C39.6724 2.76743 39.9808 2.84881 40.1414 2.91063C40.3342 3.42394 40.5929 5.26349 38.6915 7.16624L28.9916 16.8654L29.0615 18.0688C29.2086 20.5869 29.4814 25.0999 29.7166 28.9685C29.9242 32.4119 30.1211 35.6638 30.1338 35.9406C30.1405 36.1308 30.1432 36.1758 29.9659 36.3894C29.5695 36.8712 28.8297 37.6875 28.2062 38.3641C27.2394 35.7592 25.2076 30.2572 24.0856 27.1774L22.6438 23.2146L19.6613 26.1971L14.1768 31.4706L13.4129 32.2332L13.3894 33.3116C13.3712 34.1723 13.3753 35.7169 13.3773 37.0788C13.38 38.0275 13.3827 38.8895 13.376 39.3645C13.3639 39.3867 13.5594 39.4129 13.5412 39.4445C13.4243 39.257 13.2987 39.0548 13.1657 38.8445C12.0598 37.0808 10.5292 34.6412 10.0623 33.88L9.72097 33.3223L9.16062 32.9837C7.12283 31.7528 4.86533 30.3318 3.48798 29.4443C3.53568 29.4167 3.57461 29.5625 3.60619 29.5457H3.69555C4.12891 29.5457 4.84513 29.5551 5.64802 29.5665C6.69816 29.5806 7.88939 29.5981 8.80113 29.5981C9.1505 29.5981 9.46091 29.5954 9.71085 29.59L10.7892 29.5652L11.5518 28.8026L16.8321 23.3557L19.8044 20.3847L15.8599 18.9334C12.8956 17.843 7.21756 15.7225 4.56164 14.7248C5.24288 14.0973 6.06391 13.3522 6.54296 12.9557C6.67666 12.8455 6.78084 12.7891 6.85269 12.7891L6.94742 12.7918C7.24372 12.8059 10.9236 13.0464 14.4811 13.2789C18.2577 13.5255 22.5201 13.8037 24.9435 13.9575L26.1549 14.0334L35.8561 4.33156C37.2187 2.97101 38.557 2.76743 39.2343 2.76743ZM39.2344 0.0800591C37.6467 0.0800591 35.6977 0.690038 33.9569 2.43154L25.113 11.2748C20.1317 10.9596 7.37415 10.1158 7.0577 10.107C6.98944 10.1036 6.92112 10.1018 6.85277 10.1016C6.4221 10.1016 5.67834 10.1843 4.83177 10.8837C3.83807 11.7054 1.76601 13.6539 1.76601 13.6539C1.26613 14.1551 1.01284 14.7759 1.0733 15.3598C1.11026 15.7125 1.30174 16.3555 2.16779 16.6941C2.69387 16.9004 11.0661 20.0327 14.9321 21.455L9.65185 26.9019C9.41799 26.9073 9.12842 26.91 8.80121 26.91C7.1914 26.91 4.69538 26.8576 3.69492 26.8576C3.56256 26.8576 3.4564 26.8576 3.38111 26.8603C3.07675 26.8697 2.44653 26.7199 0.784315 28.1093L0.666065 28.2195C0.167533 28.718 0.050627 29.2152 0.039877 29.5438C0.029127 29.8824 0.11983 30.3702 0.609627 30.7625C0.903908 31.0004 4.67649 33.4158 7.77043 35.2843C8.51222 36.4943 11.9253 41.919 12.1034 42.2133C12.3635 42.6527 12.7887 42.9033 13.2974 42.9194H13.3397C13.8342 42.9194 14.3421 42.6742 14.8393 42.1911C16.2462 40.5457 16.052 39.8645 16.0581 39.5782C16.0802 38.6806 16.0426 34.8778 16.0748 33.3701L21.5587 28.0959C22.9602 31.9457 26.024 40.2319 26.2289 40.7593C26.5702 41.6254 27.2132 41.8155 27.5659 41.8511C27.6237 41.8578 27.6829 41.8606 27.7406 41.8606C28.2708 41.8606 28.8203 41.6113 29.2705 41.1612C29.2705 41.1612 31.2129 39.0999 32.0379 38.0968C32.8643 37.0943 32.8321 36.2384 32.816 35.8346C32.8093 35.5551 32.0312 22.8667 31.7423 17.9116L40.5882 9.06567C43.7232 5.92932 43.2247 2.15006 42.0603 0.98772C41.5463 0.471048 40.5056 0.0801011 39.2344 0.0800591Z" fill="#1A1A1A"/>
</svg>
